<svg xmlns="http://www.w3.org/2000/svg" width="24" height="24" viewBox="0 0 24 24" fill="none">
    <path d="M18.6667 3.42857C18.6667 5.37054 18.2969 7.08743 17.5573 8.57924C16.8177 10.0711 15.8924 11.2113 14.7812 12C15.8924 12.7887 16.8177 13.9289 17.5573 15.4208C18.2969 16.9126 18.6667 18.6295 18.6667 20.5714H19.6667C19.7639 20.5714 19.8438 20.6049 19.9062 20.6719C19.9688 20.7388 20 20.8244 20 20.9286V21.6429C20 21.747 19.9688 21.8326 19.9062 21.8996C19.8438 21.9665 19.7639 22 19.6667 22H4.33333C4.23611 22 4.15625 21.9665 4.09375 21.8996C4.03125 21.8326 4 21.747 4 21.6429V20.9286C4 20.8244 4.03125 20.7388 4.09375 20.6719C4.15625 20.6049 4.23611 20.5714 4.33333 20.5714H5.33333C5.33333 18.6295 5.70312 16.9126 6.44271 15.4208C7.18229 13.9289 8.10764 12.7887 9.21875 12C8.10764 11.2113 7.18229 10.0711 6.44271 8.57924C5.70312 7.08743 5.33333 5.37054 5.33333 3.42857H4.33333C4.23611 3.42857 4.15625 3.39509 4.09375 3.32812C4.03125 3.26116 4 3.1756 4 3.07143V2.35714C4 2.25298 4.03125 2.16741 4.09375 2.10045C4.15625 2.03348 4.23611 2 4.33333 2H19.6667C19.7639 2 19.8438 2.03348 19.9062 2.10045C19.9688 2.16741 20 2.25298 20 2.35714V3.07143C20 3.1756 19.9688 3.26116 19.9062 3.32812C19.8438 3.39509 19.7639 3.42857 19.6667 3.42857H18.6667ZM13.1042 11.3304C13.6389 11.1146 14.1562 10.7705 14.6562 10.298C15.1562 9.82552 15.6059 9.25818 16.0052 8.59598C16.4045 7.93378 16.7257 7.15253 16.9688 6.25223C17.2118 5.35193 17.3333 4.41071 17.3333 3.42857H6.66667C6.66667 4.41071 6.78819 5.35193 7.03125 6.25223C7.27431 7.15253 7.59549 7.93378 7.99479 8.59598C8.3941 9.25818 8.84375 9.82552 9.34375 10.298C9.84375 10.7705 10.3611 11.1146 10.8958 11.3304C11.0278 11.3824 11.1337 11.4699 11.2135 11.5926C11.2934 11.7154 11.3333 11.8512 11.3333 12C11.3333 12.1488 11.2934 12.2846 11.2135 12.4074C11.1337 12.5301 11.0278 12.6176 10.8958 12.6696C10.3611 12.8854 9.84375 13.2295 9.34375 13.702C8.84375 14.1745 8.3941 14.7418 7.99479 15.404C7.59549 16.0662 7.27431 16.8475 7.03125 17.7478C6.78819 18.6481 6.66667 19.5893 6.66667 20.5714H17.3333C17.3333 19.5893 17.2118 18.6481 16.9688 17.7478C16.7257 16.8475 16.4045 16.0662 16.0052 15.404C15.6059 14.7418 15.1562 14.1745 14.6562 13.702C14.1562 13.2295 13.6389 12.8854 13.1042 12.6696C12.9722 12.6176 12.8663 12.5301 12.7865 12.4074C12.7066 12.2846 12.6667 12.1488 12.6667 12C12.6667 11.8512 12.7066 11.7154 12.7865 11.5926C12.8663 11.4699 12.9722 11.3824 13.1042 11.3304Z" fill="#222222"/>
</svg>
