<svg xmlns="http://www.w3.org/2000/svg" width="24" height="24" viewBox="0 0 24 24" fill="none">
    <path fill-rule="evenodd" clip-rule="evenodd" d="M21 10.1818C21 16.5455 12 22 12 22C12 22 3 16.5455 3 10.1818C3 8.01187 3.94821 5.93079 5.63604 4.3964C7.32387 2.86201 9.61305 2 12 2C14.3869 2 16.6761 2.86201 18.364 4.3964C20.0518 5.93079 21 8.01187 21 10.1818Z" stroke="#222222" stroke-width="1.5" stroke-linecap="round" stroke-linejoin="round"/>
    <path d="M12 13C13.6569 13 15 11.6569 15 10C15 8.34315 13.6569 7 12 7C10.3431 7 9 8.34315 9 10C9 11.6569 10.3431 13 12 13Z" stroke="#222222" stroke-width="1.5" stroke-linecap="round" stroke-linejoin="round"/>
</svg>
