<svg xmlns="http://www.w3.org/2000/svg" width="24" height="24" viewBox="0 0 24 24" fill="none">
    <path d="M12 1.125C9.84913 1.125 7.74656 1.76281 5.95818 2.95777C4.16979 4.15273 2.77592 5.85117 1.95281 7.83832C1.12971 9.82546 0.914351 12.0121 1.33396 14.1216C1.75358 16.2312 2.78932 18.1689 4.31022 19.6898C5.83111 21.2107 7.76885 22.2464 9.8784 22.666C11.9879 23.0857 14.1745 22.8703 16.1617 22.0472C18.1488 21.2241 19.8473 19.8302 21.0422 18.0418C22.2372 16.2534 22.875 14.1509 22.875 12C22.875 9.11577 21.7292 6.34967 19.6898 4.31021C17.6503 2.27076 14.8842 1.125 12 1.125ZM12 21.375C10.1458 21.375 8.33325 20.8252 6.79153 19.795C5.24982 18.7649 4.04821 17.3007 3.33863 15.5877C2.62906 13.8746 2.44341 11.9896 2.80514 10.171C3.16688 8.35246 4.05976 6.68199 5.37088 5.37087C6.682 4.05976 8.35246 3.16687 10.171 2.80514C11.9896 2.4434 13.8746 2.62906 15.5877 3.33863C17.3007 4.0482 18.7649 5.24982 19.795 6.79153C20.8252 8.33324 21.375 10.1458 21.375 12C21.375 13.2311 21.1325 14.4502 20.6614 15.5877C20.1902 16.7251 19.4997 17.7586 18.6291 18.6291C17.7586 19.4997 16.7251 20.1902 15.5877 20.6614C14.4502 21.1325 13.2311 21.375 12 21.375Z" fill="#222222"/>
    <path d="M16.875 11.25H12.75V5.625C12.75 5.42609 12.671 5.23532 12.5303 5.09467C12.3897 4.95402 12.1989 4.875 12 4.875C11.8011 4.875 11.6103 4.95402 11.4697 5.09467C11.329 5.23532 11.25 5.42609 11.25 5.625V12C11.25 12.1989 11.329 12.3897 11.4697 12.5303C11.6103 12.671 11.8011 12.75 12 12.75H16.875C17.0739 12.75 17.2647 12.671 17.4053 12.5303C17.546 12.3897 17.625 12.1989 17.625 12C17.625 11.8011 17.546 11.6103 17.4053 11.4697C17.2647 11.329 17.0739 11.25 16.875 11.25Z" fill="#222222"/>
</svg>
